<?xml version="1.0" standalone="no"?>
<!DOCTYPE svg PUBLIC "-//W3C//DTD SVG 20010904//EN"
 "http://www.w3.org/TR/2001/REC-SVG-20010904/DTD/svg10.dtd">
<svg version="1.0" xmlns="http://www.w3.org/2000/svg"
 width="806.000000pt" height="806.000000pt" viewBox="0 0 806.000000 806.000000"
 preserveAspectRatio="xMidYMid meet">
<metadata>
Created by potrace 1.14, written by Peter Selinger 2001-2017
</metadata>
<g transform="translate(0.000000,806.000000) scale(0.100000,-0.100000)"
fill="#000000" stroke="none">
<path d="M1316 4808 c5 -13 1 -16 -16 -13 -15 3 -24 -3 -32 -20 -6 -13 -14
-23 -17 -20 -4 2 -13 -6 -21 -18 -12 -21 -12 -21 5 -7 18 14 18 13 0 -12 -11
-15 -25 -28 -32 -28 -6 0 -15 -10 -18 -21 -6 -17 -9 -19 -16 -8 -7 11 -9 10
-9 -3 0 -10 -4 -17 -8 -15 -9 2 -127 -115 -150 -149 -7 -10 -10 -12 -6 -4 4 9
3 12 -2 7 -5 -5 -9 -12 -9 -15 -1 -13 -30 -61 -37 -61 -5 -1 -11 -1 -15 -1 -5
0 -1 -5 7 -10 13 -8 12 -10 -3 -10 -9 0 -16 -3 -16 -7 4 -22 -2 -33 -13 -27
-8 5 -7 0 2 -11 8 -10 10 -16 5 -13 -6 4 -17 -2 -24 -14 -10 -16 -10 -19 1
-13 7 3 5 0 -4 -8 -10 -8 -15 -17 -11 -20 3 -4 0 -7 -7 -7 -7 0 -10 -3 -7 -7
4 -3 1 -13 -6 -21 -10 -13 -9 -14 1 -8 11 7 11 4 0 -13 -7 -12 -17 -21 -22
-21 -4 0 -3 -6 3 -14 9 -11 9 -16 0 -22 -8 -5 -9 -3 -4 6 5 9 4 11 -4 6 -9 -6
-9 -11 -1 -21 7 -9 7 -14 1 -17 -9 -3 -18 -32 -20 -66 -1 -7 -5 -11 -9 -8 -5
3 -8 -11 -7 -30 1 -18 -2 -34 -7 -34 -5 0 -6 -4 -3 -10 3 -5 2 -10 -3 -10 -5
0 -10 -12 -11 -27 -1 -53 -4 -68 -14 -80 -6 -9 -5 -13 4 -13 11 0 11 -2 -1
-10 -13 -9 -13 -10 0 -10 9 0 11 -3 4 -8 -14 -9 -27 -45 -14 -37 6 3 10 1 10
-4 0 -6 -4 -11 -10 -11 -5 0 -10 -5 -10 -11 0 -5 4 -8 9 -5 5 4 8 0 7 -6 -6
-32 -18 -57 -31 -62 -8 -3 -12 -12 -9 -21 3 -8 1 -15 -6 -15 -7 0 -9 -8 -5
-21 4 -12 3 -19 -1 -16 -5 3 -9 -5 -9 -18 0 -13 3 -22 6 -20 8 6 38 -32 32
-39 -4 -3 1 -6 9 -6 9 0 23 -10 32 -22 9 -13 14 -17 11 -10 -3 6 -1 12 4 12 6
0 11 -4 11 -10 0 -5 9 -10 19 -10 11 0 22 -6 24 -12 3 -8 6 -5 6 5 1 12 5 15
14 10 6 -4 20 -6 30 -5 9 2 17 -2 17 -8 0 -6 5 -8 10 -5 6 3 10 2 10 -4 0 -6
6 -8 14 -5 8 3 19 -4 26 -16 8 -15 18 -20 31 -17 10 3 17 1 13 -4 -3 -5 4 -9
15 -9 12 0 21 -4 21 -10 0 -5 7 -7 15 -4 8 4 15 1 15 -6 0 -9 4 -9 17 1 11 10
14 10 9 2 -6 -12 18 -19 47 -14 4 0 7 -4 7 -10 0 -8 6 -7 17 2 11 10 14 10 9
2 -8 -15 -2 -16 165 -15 87 0 124 4 148 16 22 12 31 13 31 4 0 -6 6 -4 13 7 8
10 19 15 25 11 7 -4 12 -3 12 3 0 6 7 7 17 4 11 -4 14 -3 9 5 -5 8 -2 10 8 6
9 -3 16 -1 16 5 0 6 7 8 17 4 11 -4 14 -3 9 5 -4 7 -1 12 9 12 8 0 18 7 21 15
4 8 10 13 14 10 4 -3 13 2 20 10 7 8 9 15 4 15 -5 0 -1 5 9 11 15 9 15 12 3
25 -17 17 -30 19 -20 3 4 -8 0 -8 -15 0 -17 9 -21 9 -19 -1 2 -7 -3 -12 -9
-11 -7 2 -13 -2 -13 -8 0 -5 -5 -7 -12 -3 -8 5 -9 2 -5 -10 4 -9 3 -15 -1 -12
-5 3 -21 -2 -36 -10 -16 -7 -37 -14 -48 -14 -10 0 -16 -4 -13 -10 6 -9 -29
-15 -62 -11 -7 1 -13 -3 -13 -9 0 -6 -11 -8 -25 -6 -13 3 -27 0 -31 -5 -3 -5
-10 -6 -16 -3 -6 4 -14 0 -19 -7 -7 -11 -9 -11 -9 -1 0 8 -5 10 -12 5 -7 -4
-22 -9 -33 -10 -15 -2 -17 -1 -6 6 10 7 7 9 -12 8 -14 -1 -23 -5 -20 -9 2 -5
-1 -8 -6 -8 -6 0 -11 5 -11 10 0 6 -12 10 -26 10 -17 0 -23 -4 -19 -12 4 -7 1
-6 -7 3 -7 9 -19 14 -25 12 -7 -3 -13 1 -13 9 0 10 -3 9 -10 -2 -6 -10 -10
-11 -10 -3 0 7 -3 12 -7 11 -12 -4 -103 26 -103 33 0 4 -13 9 -29 12 -16 3
-36 13 -45 22 -9 9 -16 14 -16 10 0 -3 -10 1 -22 9 -13 10 -44 16 -75 16 -42
0 -54 4 -63 20 -6 11 -18 20 -27 20 -13 0 -14 2 -2 17 10 11 10 14 2 9 -9 -5
-13 0 -13 16 0 18 2 20 10 8 9 -13 10 -13 11 0 1 8 1 21 0 28 -1 7 4 11 11 10
8 -2 13 8 13 29 0 17 4 29 9 26 5 -4 6 7 3 25 -4 18 -3 32 2 32 4 0 7 18 5 40
-2 27 1 38 8 34 7 -5 7 -1 0 12 -7 13 -6 24 7 43 11 17 12 23 2 17 -8 -5 -6 3
5 20 11 15 14 25 8 22 -6 -4 -11 -1 -11 7 0 8 4 12 9 9 4 -3 8 9 8 26 0 17 4
29 8 26 4 -2 9 7 10 22 4 60 7 70 16 65 5 -4 7 1 3 10 -3 10 -2 17 4 17 5 0 7
11 5 25 -3 15 -1 23 5 20 5 -4 6 -11 3 -17 -4 -7 -2 -8 5 -4 6 4 9 16 6 27 -4
11 -2 19 4 19 6 0 11 5 11 11 0 5 -6 7 -12 3 -9 -5 -9 -3 1 9 7 9 18 14 25 10
6 -4 4 2 -4 12 -9 11 -10 16 -2 11 6 -4 12 -2 12 3 0 18 3 26 17 40 8 7 12 20
8 29 -4 12 -3 13 10 2 8 -7 15 -11 16 -9 6 33 6 38 -4 33 -7 -3 -4 1 6 9 9 8
17 17 17 21 0 4 18 24 39 45 22 22 37 42 34 45 -4 3 1 6 9 6 9 0 23 12 33 26
10 15 22 23 31 20 8 -3 12 -1 9 4 -3 5 4 17 15 27 54 45 93 83 85 83 -5 0 0 7
11 16 10 8 13 13 7 9 -9 -4 -11 -1 -7 9 3 9 10 13 15 10 6 -3 17 0 26 8 12 9
15 9 9 1 -7 -12 25 -18 81 -16 7 1 10 -3 7 -8 -3 -5 11 -9 30 -9 20 0 36 -5
36 -11 0 -5 4 -8 9 -4 5 3 12 1 16 -5 4 -6 11 -8 16 -5 5 4 9 1 9 -4 0 -6 7
-11 15 -11 8 0 15 -6 15 -12 0 -9 3 -8 10 2 8 12 10 12 16 -4 5 -14 9 -15 15
-4 7 10 9 9 9 -4 0 -9 6 -19 13 -21 9 -4 8 -6 -2 -6 -11 -1 -11 -4 0 -18 12
-15 12 -16 -4 -10 -15 6 -16 4 -6 -14 8 -15 8 -19 0 -15 -7 5 -11 -1 -11 -14
0 -12 -4 -19 -9 -16 -5 3 -12 -1 -15 -10 -3 -8 -2 -12 4 -9 6 3 7 -1 4 -9 -3
-9 -10 -16 -16 -16 -5 0 -7 -4 -3 -9 3 -5 -4 -16 -16 -25 -12 -8 -18 -19 -15
-25 4 -6 -2 -8 -14 -6 -11 2 -20 -2 -20 -8 0 -7 -4 -6 -10 3 -6 10 -10 11 -10
3 0 -7 -5 -13 -11 -13 -18 0 -38 27 -44 59 -5 28 -4 30 17 22 16 -6 26 -4 34
7 15 21 -2 63 -22 55 -8 -3 -14 0 -14 7 0 6 -4 9 -9 6 -5 -4 -21 -2 -36 4 -19
7 -24 7 -19 -2 5 -8 2 -9 -9 -5 -9 3 -19 2 -23 -4 -4 -6 -10 -7 -17 0 -14 11
-47 -9 -47 -28 0 -6 -5 -11 -11 -11 -5 0 -8 -4 -4 -9 3 -5 1 -12 -5 -16 -6 -4
-8 -11 -5 -16 4 -5 2 -9 -3 -9 -6 0 -9 -14 -8 -31 1 -16 -1 -32 -5 -35 -9 -5
-6 -24 5 -43 6 -9 5 -12 -1 -8 -6 4 -13 0 -16 -7 -3 -8 -1 -17 6 -20 7 -2 7
-5 1 -5 -11 -1 -10 -52 1 -72 5 -8 4 -10 -3 -5 -7 4 -12 4 -13 -1 0 -4 -2 -16
-4 -25 -2 -10 1 -20 6 -24 5 -3 4 -14 -2 -26 -9 -16 -8 -19 3 -12 9 6 8 0 -3
-17 -13 -19 -14 -30 -7 -43 8 -14 8 -17 -2 -11 -9 5 -10 2 -5 -14 3 -11 2 -21
-3 -21 -5 0 -7 -12 -4 -26 3 -20 2 -25 -7 -19 -8 4 -12 2 -11 -6 3 -22 -11
-59 -22 -59 -6 0 -7 -7 -4 -16 6 -15 4 -15 -11 -3 -9 8 -14 9 -10 3 4 -7 0
-17 -8 -24 -8 -7 -13 -15 -11 -19 3 -4 -4 -8 -15 -8 -23 -2 -49 -21 -49 -35 0
-5 6 -6 13 -2 9 6 9 5 0 -7 -10 -12 -8 -17 8 -27 11 -7 19 -8 19 -2 0 5 6 10
14 10 8 0 16 4 18 9 2 5 10 11 18 13 21 4 60 50 53 61 -3 6 -2 8 3 5 5 -3 15
0 22 8 10 11 10 14 0 14 -8 0 -6 5 5 11 9 5 17 17 17 26 0 20 43 60 58 55 7
-2 12 1 12 7 0 6 11 11 24 11 14 0 28 5 32 11 4 8 9 7 15 -2 6 -9 9 -10 9 -2
0 6 13 11 30 11 17 -1 30 -4 30 -7 0 -4 16 -8 36 -9 20 -2 43 -9 51 -17 8 -9
18 -13 21 -11 4 2 16 -6 27 -18 21 -22 26 -51 11 -76 -5 -8 -6 -12 -1 -8 4 4
14 3 21 -3 14 -11 38 -3 30 10 -3 4 3 13 14 21 10 7 16 19 14 25 -3 7 2 19 10
28 8 8 12 17 9 21 -4 3 2 6 13 6 16 0 17 2 4 10 -13 8 -12 10 3 10 10 0 20 7
23 15 4 8 10 12 16 9 5 -3 21 5 35 17 22 21 25 21 19 5 -5 -15 -4 -17 7 -8 8
7 18 8 22 4 5 -4 6 -2 2 3 -3 6 2 16 12 22 16 10 18 8 17 -15 -1 -15 3 -33 8
-39 5 -9 4 -13 -4 -13 -10 0 -10 -3 0 -15 10 -12 10 -15 -1 -15 -11 0 -11 -2
1 -10 11 -7 11 -10 2 -10 -9 0 -10 -5 -3 -18 5 -10 6 -24 1 -32 -5 -8 -4 -22
1 -32 7 -13 6 -18 -3 -18 -9 0 -9 -3 2 -10 8 -5 10 -10 4 -10 -6 0 -11 -7 -11
-15 0 -8 4 -12 9 -9 10 6 9 -4 -1 -31 -5 -11 -4 -25 1 -32 7 -9 7 -13 -1 -13
-6 0 -11 -7 -11 -15 0 -8 6 -15 13 -15 8 0 7 -4 -3 -10 -11 -7 -11 -10 -2 -10
9 0 10 -5 3 -19 -6 -10 -7 -21 -4 -25 3 -3 5 -34 4 -69 -2 -50 1 -66 15 -78
11 -9 15 -9 10 -1 -4 6 -3 12 3 12 5 0 12 -6 14 -12 4 -10 6 -10 6 0 1 6 8 12
17 12 8 0 12 -5 9 -11 -4 -6 3 -5 14 3 18 11 23 11 30 -1 7 -11 9 -11 14 0 4
12 7 11 16 -1 7 -9 11 -10 11 -3 0 6 15 13 33 15 25 2 31 7 29 22 -2 12 1 16
10 11 10 -6 11 -5 1 6 -16 16 -17 33 -1 23 7 -5 8 -3 2 7 -13 21 -14 39 -1 39
8 0 8 3 2 8 -13 8 -13 22 -1 41 6 10 5 12 -3 7 -12 -8 -9 33 5 55 4 8 3 9 -4
5 -14 -8 -15 3 -3 23 5 8 25 13 50 13 25 -1 41 4 41 11 0 8 3 8 8 2 10 -16 62
-17 80 -3 11 9 13 9 9 1 -5 -8 6 -11 38 -11 28 0 45 4 45 11 0 7 4 6 9 -2 8
-13 12 -13 27 0 10 8 15 9 11 2 -4 -7 -1 -10 10 -9 18 3 28 36 10 36 -8 0 -7
4 1 12 15 15 16 32 1 22 -7 -4 -7 1 1 16 10 18 9 24 -7 36 -13 10 -13 12 -2 9
11 -4 15 1 15 20 0 27 -3 28 -246 26 -36 0 -76 2 -88 5 -21 4 -22 7 -10 21 9
12 9 15 1 9 -7 -4 -13 -2 -13 3 0 6 6 11 13 11 7 0 8 3 2 8 -15 11 -17 32 -2
32 9 0 8 3 -2 9 -10 7 -11 13 -1 31 8 15 8 20 1 16 -17 -11 -13 10 5 25 13 10
17 10 24 0 6 -10 9 -10 15 -1 6 9 10 9 16 -1 7 -12 9 -12 9 0 0 10 3 11 14 2
10 -9 16 -9 21 -1 5 8 10 8 20 0 10 -8 15 -8 20 1 6 8 10 7 16 -2 7 -12 9 -12
9 0 0 11 3 11 16 0 13 -10 17 -10 25 2 8 12 10 12 19 -1 7 -11 10 -11 10 -2 0
8 5 10 13 5 18 -11 38 -13 31 -2 -3 5 -1 9 5 9 5 0 12 -4 15 -9 7 -10 31 -9
42 2 12 12 26 8 18 -5 -6 -10 -4 -10 8 0 20 16 29 60 14 66 -7 3 -7 5 1 5 7 1
10 8 6 18 -5 12 -3 14 8 9 8 -4 6 -1 -4 7 -16 14 -16 16 -2 31 9 9 12 16 6 16
-6 0 -11 7 -11 15 0 9 -6 12 -17 8 -12 -5 -14 -3 -8 8 8 12 6 12 -9 0 -15 -13
-19 -13 -27 0 -5 8 -9 9 -9 4 0 -6 -11 -12 -26 -13 -17 -1 -23 2 -18 10 5 7 3
8 -7 2 -8 -5 -34 -10 -59 -11 -32 -2 -41 0 -30 7 8 5 10 10 4 10 -6 0 -14 -3
-18 -7 -9 -9 -87 -13 -81 -3 2 3 -2 7 -10 7 -8 0 -12 -4 -9 -9 3 -4 -2 -8 -11
-8 -9 0 -13 5 -10 10 3 6 1 10 -4 10 -6 0 -11 -4 -11 -8 0 -4 -9 -8 -20 -9
-13 -1 -18 2 -14 9 5 7 2 8 -7 2 -20 -12 -51 -16 -45 -5 7 10 -20 9 -30 -2
-12 -11 -26 -8 -18 4 5 8 1 8 -14 0 -27 -14 -35 -14 -26 1 5 7 3 8 -7 2 -19
-12 -51 -16 -45 -6 3 5 -1 9 -8 9 -8 0 -12 -7 -9 -14 3 -8 2 -13 -3 -12 -20 3
-23 -2 -14 -26 6 -16 6 -25 0 -25 -6 0 -10 -5 -10 -11 0 -5 4 -8 9 -5 5 4 6
-9 1 -29 -4 -20 -4 -35 1 -35 5 0 9 -5 9 -11 0 -5 -5 -7 -12 -3 -8 5 -9 2 -5
-9 3 -10 2 -17 -3 -17 -6 0 -10 5 -10 10 0 6 -7 10 -16 10 -8 0 -13 -3 -11 -7
3 -5 -11 -9 -30 -9 -19 -1 -39 -7 -43 -14 -4 -7 -13 -9 -19 -6 -6 4 -11 3 -11
-3 0 -5 -9 -13 -20 -16 -11 -4 -18 -11 -15 -16 4 -5 1 -9 -5 -9 -15 0 -41 -26
-33 -34 17 -17 -26 -3 -45 14 -12 12 -22 17 -22 13 0 -4 -5 0 -11 10 -8 13
-14 15 -23 7 -10 -7 -17 -6 -26 5 -7 9 -21 13 -31 10 -12 -4 -19 -1 -19 7 0
10 -3 9 -10 -2 -9 -13 -10 -13 -10 0 0 13 -1 13 -10 0 -7 -11 -10 -11 -10 -2
0 10 -5 10 -21 1 -13 -7 -19 -7 -15 -1 10 17 -52 5 -96 -19 -22 -11 -27 -2
-21 36 2 17 4 39 4 50 0 10 5 26 12 34 9 12 9 13 0 7 -16 -9 -16 -1 -2 26 8
15 8 19 0 14 -6 -4 -11 -2 -11 3 0 6 5 11 10 11 6 0 10 5 10 11 0 5 -4 8 -8 5
-13 -8 -8 35 6 61 9 17 9 23 0 29 -8 5 -6 10 8 15 18 7 18 8 0 8 -17 1 -18 2
-1 27 9 15 12 23 6 20 -6 -4 -11 0 -11 9 0 9 5 13 11 10 6 -4 10 -1 8 6 -3 28
1 37 19 34 9 -2 20 -4 24 -4 4 -1 5 -8 2 -16 -4 -8 0 -23 7 -32 12 -14 12 -16
-1 -8 -12 7 -13 6 -3 -6 6 -8 12 -17 12 -21 4 -23 15 -38 27 -38 8 0 14 -4 14
-8 0 -5 24 -10 54 -11 49 -2 56 1 89 33 19 19 38 31 42 28 3 -4 3 2 -1 11 -4
12 -2 17 7 15 9 -2 13 4 11 15 -2 11 4 17 15 17 11 0 14 3 7 8 -7 5 -7 14 1
29 7 13 14 21 17 18 3 -3 4 6 3 20 -2 14 1 23 6 19 5 -3 9 1 10 8 0 7 2 28 3
46 1 17 -1 32 -6 32 -4 0 -8 5 -8 11 0 14 -41 48 -57 49 -7 0 -13 4 -13 10 0
5 -7 7 -15 4 -8 -4 -15 -1 -15 6 0 6 -4 8 -10 5 -5 -3 -10 2 -11 12 0 10 -3
13 -6 6 -3 -10 -10 -10 -25 -2 -11 6 -26 8 -34 5 -8 -3 -13 0 -11 7 1 7 -4 11
-12 9 -8 -2 -18 3 -22 10 -7 10 -9 10 -9 -2 0 -10 -3 -11 -8 -3 -4 6 -25 12
-47 14 -22 2 -43 8 -47 14 -5 6 -8 4 -8 -4 0 -11 -4 -9 -15 5 -12 15 -14 16
-9 2z m105 -415 c13 -16 12 -17 -3 -4 -10 7 -18 15 -18 17 0 8 8 3 21 -13z"/>
<path d="M686 4482 c-8 -13 11 -35 23 -28 6 4 14 0 17 -9 4 -10 13 -13 25 -10
15 5 18 2 13 -12 -4 -13 -3 -15 4 -4 7 9 12 10 16 2 4 -6 12 -11 18 -11 6 0
-1 9 -15 20 -14 11 -32 20 -41 20 -9 0 -16 5 -16 10 0 6 -9 10 -21 10 -11 0
-17 5 -14 10 3 6 4 10 1 10 -3 0 -7 -4 -10 -8z"/>
<path d="M2710 4433 c0 -6 -13 -9 -30 -7 -17 2 -30 -1 -30 -7 0 -6 -9 -9 -20
-6 -11 3 -18 0 -17 -7 1 -6 -4 -10 -10 -8 -7 1 -13 -7 -13 -18 0 -10 -8 -24
-17 -29 -14 -8 -15 -10 -3 -11 12 0 13 -2 1 -9 -9 -6 -10 -10 -2 -16 9 -5 9
-10 0 -21 -10 -12 -9 -13 5 -8 9 4 16 3 15 -2 -3 -20 1 -47 7 -41 4 4 14 -2
23 -12 13 -15 31 -19 88 -19 48 0 72 4 70 11 -1 6 5 12 13 12 8 1 14 6 13 13
-2 7 1 12 5 12 16 0 31 47 19 59 -8 8 -6 11 9 11 10 0 15 4 9 8 -6 4 -16 20
-23 35 -7 15 -17 25 -22 22 -6 -3 -10 1 -10 9 0 10 -6 13 -17 9 -12 -5 -14 -3
-8 8 6 11 5 12 -5 2 -11 -10 -17 -9 -32 4 -10 9 -18 11 -18 6z"/>
<path d="M640 4358 c0 -6 3 -8 7 -5 3 4 13 1 21 -5 7 -7 23 -14 35 -15 12 -2
24 -7 27 -11 9 -12 38 -13 46 -1 4 7 3 9 -4 6 -15 -10 -43 3 -35 16 3 5 2 7
-4 4 -5 -3 -22 1 -37 9 -34 17 -56 18 -56 2z"/>
<path d="M3897 4310 c-10 -36 -9 -42 6 -34 8 5 8 2 -2 -9 -11 -14 -11 -20 0
-34 10 -11 10 -14 2 -9 -8 4 -13 1 -13 -8 0 -9 6 -16 13 -16 7 0 8 -3 2 -8 -6
-4 -10 -25 -10 -47 0 -22 -4 -43 -10 -47 -5 -4 -1 -8 10 -8 17 0 17 -2 5 -10
-12 -8 -13 -13 -3 -29 9 -14 9 -22 2 -27 -6 -3 -8 -17 -4 -31 4 -17 2 -23 -6
-18 -8 6 -8 2 0 -12 6 -11 8 -23 4 -26 -3 -4 0 -14 8 -24 9 -11 10 -14 2 -9
-7 4 -13 3 -13 -1 0 -5 6 -15 13 -22 7 -9 7 -11 1 -8 -7 4 -14 0 -18 -8 -3 -8
0 -15 6 -15 6 0 5 -6 -3 -17 -8 -10 -9 -14 -2 -10 6 4 14 3 18 -3 3 -5 1 -10
-5 -10 -7 0 -10 -13 -9 -33 2 -18 -1 -39 -5 -46 -6 -10 -5 -12 2 -7 8 5 12 -1
12 -14 0 -13 -4 -19 -11 -14 -8 4 -8 1 -2 -12 5 -11 8 -49 8 -86 -1 -70 5 -77
49 -69 5 1 13 -4 17 -11 7 -10 9 -10 9 0 0 6 9 12 19 12 11 0 22 -6 24 -12 4
-10 6 -10 6 0 1 6 8 12 17 12 8 0 12 -5 9 -11 -4 -6 3 -5 14 3 18 11 23 11 31
-2 8 -13 10 -12 10 3 0 10 4 16 9 12 5 -3 12 -1 16 5 3 5 1 10 -5 10 -7 0 -8
5 -3 13 10 16 11 28 1 54 -4 12 -4 25 1 27 6 4 7 51 1 51 -6 0 -4 68 2 71 4 3
5 10 2 18 -3 9 6 12 37 9 27 -2 46 1 51 9 5 9 8 9 8 1 0 -7 17 -11 45 -11 30
0 43 3 39 10 -5 7 -2 8 7 2 19 -12 137 -15 145 -3 3 5 10 6 16 3 7 -4 7 0 -1
13 -7 14 -7 24 2 33 7 7 7 10 1 7 -7 -4 -11 5 -11 23 0 16 3 27 6 26 3 -2 7 7
8 21 1 20 -1 23 -9 12 -7 -10 -9 -8 -5 9 3 13 0 22 -6 23 -7 0 -85 0 -174 0
-152 1 -161 2 -166 20 -3 12 0 22 9 26 12 4 12 7 -2 18 -16 11 -16 13 2 23 17
10 18 11 1 12 -14 0 -16 4 -7 19 6 13 7 22 0 26 -15 9 -1 31 20 31 10 0 17 -3
14 -7 -5 -9 17 -6 33 4 6 4 14 1 16 -5 4 -10 6 -9 6 1 1 11 4 11 17 0 13 -10
17 -10 25 2 6 9 12 10 17 4 9 -13 35 -18 28 -6 -4 6 5 8 21 6 16 -2 28 -4 28
-5 0 -8 36 -6 41 2 4 6 10 5 15 -3 7 -12 9 -12 9 0 0 10 3 11 14 2 10 -8 16
-9 21 -1 3 5 11 10 16 10 6 0 7 -6 3 -12 -5 -9 -2 -9 9 1 12 10 17 10 17 2 0
-9 4 -9 13 1 8 8 12 38 11 83 -2 92 -2 97 -13 90 -5 -3 -12 -1 -16 5 -4 7 -12
7 -25 0 -25 -13 -33 -13 -24 2 5 7 3 8 -7 2 -20 -12 -61 -13 -83 -2 -12 7 -16
7 -12 0 3 -6 -10 -9 -33 -9 -22 1 -38 5 -35 9 3 4 0 8 -5 8 -6 0 -11 -4 -11
-8 0 -13 -34 -11 -42 2 -5 7 -8 7 -8 1 0 -6 -12 -12 -27 -13 -22 -1 -24 0 -13
8 8 5 10 10 4 10 -6 0 -14 -3 -18 -7 -11 -11 -48 -14 -41 -3 4 7 -3 7 -20 0
-34 -13 -38 -13 -29 3 6 9 4 9 -7 1 -17 -12 -78 -12 -98 0 -10 6 -12 5 -7 -2
5 -8 0 -12 -13 -12 -10 0 -21 6 -23 12 -3 7 -7 1 -11 -12z"/>
<path d="M2998 4272 c-27 -3 -28 -5 -27 -65 1 -86 0 -97 -8 -96 -5 1 -28 1
-52 0 -35 -1 -42 -4 -33 -13 16 -16 15 -31 0 -22 -8 5 -8 1 1 -10 13 -15 13
-19 0 -27 -10 -6 -11 -9 -1 -9 14 0 12 -31 -2 -42 -19 -13 16 -38 55 -38 24 0
39 -5 40 -12 0 -7 1 -60 1 -118 0 -64 4 -111 11 -119 10 -12 9 -13 -1 -7 -12
7 -12 4 -2 -14 6 -12 9 -28 6 -36 -3 -7 -2 -13 2 -13 19 3 25 -2 12 -11 -13
-8 -13 -10 2 -10 9 0 20 -5 24 -12 5 -7 3 -8 -7 -3 -12 8 -12 6 0 -8 7 -9 20
-17 28 -17 8 0 11 -5 8 -10 -4 -6 -3 -10 2 -9 22 4 43 -2 38 -11 -3 -5 3 -10
14 -10 11 0 22 -4 25 -8 6 -10 36 -9 53 1 6 4 15 2 19 -4 5 -8 3 -9 -6 -4 -9
6 -11 4 -6 -4 6 -9 12 -8 26 4 10 9 21 12 24 7 8 -13 55 -8 91 9 29 14 45 46
28 58 -13 9 -36 54 -24 46 6 -3 11 -1 11 4 0 6 -5 11 -12 11 -6 0 -8 3 -5 7 4
3 2 12 -4 20 -13 14 -74 18 -65 4 4 -5 -3 -7 -14 -4 -11 3 -17 10 -13 17 4 6
-2 4 -12 -4 -17 -14 -18 -13 -12 3 4 11 2 17 -8 17 -11 0 -15 12 -15 48 0 26
-6 54 -12 61 -11 11 -10 12 0 6 10 -5 13 -1 11 16 -2 13 0 30 4 37 5 7 3 12
-4 12 -9 0 -9 3 0 14 8 10 9 16 1 21 -24 15 6 25 77 25 61 0 73 2 64 13 -8 10
-7 17 2 27 10 10 8 12 -8 6 -17 -5 -16 -3 5 15 14 11 19 18 13 14 -8 -3 -14 0
-14 9 -1 9 -2 22 -3 29 -1 6 2 17 6 24 14 17 -5 23 -77 25 l-65 2 -1 30 c-1
17 -1 52 0 79 0 31 -4 47 -12 48 -59 3 -157 3 -179 1z"/>
<path d="M626 4242 c-2 -4 14 -7 37 -7 26 1 46 -4 53 -13 9 -13 11 -12 11 2 0
9 -3 16 -6 17 -49 7 -91 7 -95 1z"/>
<path d="M641 4153 c-1 -6 -9 -9 -20 -6 -10 3 -22 0 -26 -7 -4 -7 -1 -11 6 -9
32 4 70 -2 65 -10 -3 -5 8 -7 25 -6 35 3 52 15 21 15 -12 0 -22 6 -22 13 0 8
-4 7 -10 -3 -7 -11 -10 -11 -10 -2 0 7 -4 11 -9 8 -5 -4 -12 0 -14 6 -4 9 -6
9 -6 1z"/>
<path d="M5390 4152 c-8 -3 -18 -10 -22 -16 -5 -7 -8 -6 -8 3 0 11 -3 11 -15
1 -12 -10 -15 -10 -15 0 0 10 -3 10 -15 0 -8 -6 -19 -9 -25 -5 -5 3 -10 1 -10
-5 0 -6 -4 -8 -10 -5 -5 3 -10 2 -10 -2 0 -5 -10 -9 -22 -10 -12 -1 -26 -9
-30 -18 -5 -8 -13 -13 -19 -10 -5 4 -9 1 -9 -6 0 -7 -3 -9 -6 -6 -4 3 -15 -5
-26 -18 -11 -14 -24 -22 -30 -19 -7 4 -8 2 -4 -4 4 -7 2 -12 -4 -12 -6 0 -9
-4 -5 -9 3 -5 -2 -16 -11 -25 -8 -9 -17 -28 -18 -42 -2 -14 -9 -30 -17 -35
-11 -7 -11 -9 -1 -9 8 0 10 -5 5 -12 -4 -7 -6 -24 -4 -37 2 -17 -1 -21 -11
-15 -10 6 -10 5 1 -9 7 -9 11 -23 8 -31 -3 -7 0 -19 6 -25 8 -8 7 -11 -3 -11
-10 0 -8 -4 5 -13 10 -8 15 -19 11 -25 -4 -7 -1 -12 6 -12 11 0 10 -2 0 -9
-11 -7 -11 -9 2 -14 9 -4 16 -12 16 -20 0 -7 11 -23 25 -35 14 -13 23 -27 20
-32 -3 -6 1 -7 9 -4 9 4 18 -1 22 -10 3 -9 15 -16 25 -16 10 0 19 -4 19 -10 0
-5 9 -10 21 -10 12 0 17 -4 14 -11 -4 -6 -1 -10 6 -8 27 3 50 -1 46 -8 -3 -5
6 -9 20 -10 19 -1 22 1 12 8 -9 6 -10 9 -2 9 6 0 15 -5 18 -10 4 -7 12 -7 18
-2 11 8 25 8 45 2 19 -6 38 -4 51 5 10 7 13 7 8 -1 -3 -6 0 -11 8 -11 8 0 12
3 10 7 -2 4 9 7 26 8 17 0 38 7 47 14 13 11 15 11 8 -2 -4 -8 -1 -7 8 4 8 10
20 15 26 11 6 -4 9 -1 8 7 -2 7 3 12 10 10 6 -1 12 5 12 14 0 8 5 12 10 9 6
-3 10 -1 10 5 0 6 4 8 10 5 6 -3 7 1 4 9 -3 9 -10 16 -16 16 -5 0 -6 5 -3 10
3 6 -1 10 -10 10 -9 0 -13 5 -10 10 3 6 0 10 -8 10 -8 0 -18 7 -21 16 -3 8
-10 12 -16 9 -5 -3 -7 0 -4 8 9 24 -26 28 -55 7 -22 -15 -31 -16 -40 -7 -10 9
-11 8 -6 -5 8 -19 -9 -25 -20 -7 -5 7 -14 4 -26 -7 -15 -13 -22 -15 -31 -6 -7
7 -17 8 -29 1 -15 -7 -17 -6 -13 5 4 11 0 13 -15 9 -15 -4 -21 -1 -21 11 0 10
-5 13 -17 9 -11 -4 -14 -3 -9 5 4 7 1 12 -9 12 -9 0 -14 4 -10 9 3 5 1 12 -5
16 -21 13 0 20 57 19 34 -1 61 3 65 10 6 8 8 8 8 0 0 -14 249 -16 267 -2 7 6
14 5 18 -2 12 -20 36 9 25 30 -6 11 -6 21 -2 24 5 3 8 15 6 28 -1 13 -3 27 -3
31 -1 5 -5 6 -9 3 -4 -2 -9 4 -9 15 -1 13 2 17 10 12 7 -4 7 -1 -1 10 -8 9
-11 21 -7 27 4 6 1 9 -6 8 -7 -2 -14 3 -15 10 -1 6 -2 17 -3 23 0 5 -6 7 -13
3 -8 -5 -9 -2 -5 9 4 11 1 17 -7 17 -8 0 -16 9 -19 20 -3 13 -14 20 -29 20
-18 0 -20 2 -8 10 13 8 12 10 -2 10 -10 0 -18 5 -18 10 0 6 -11 10 -25 10 -14
0 -25 5 -25 10 0 6 -12 10 -26 10 -14 0 -23 4 -20 8 3 5 -1 9 -9 9 -8 0 -11
-5 -8 -11 3 -6 0 -5 -8 2 -7 6 -17 12 -22 12 -4 0 -5 -6 -1 -12 4 -7 -1 -6
-12 3 -10 9 -26 14 -34 11z m-6 -163 c8 7 21 6 39 -4 15 -8 25 -10 21 -4 -3 6
3 5 14 -2 12 -7 18 -17 16 -21 -3 -4 1 -8 9 -8 7 0 14 -6 14 -12 0 -7 4 -21 8
-30 6 -16 -2 -17 -97 -17 -60 1 -109 6 -117 13 -11 8 -13 8 -7 -1 4 -8 2 -13
-4 -13 -7 0 -9 8 -4 23 9 30 24 48 35 41 5 -3 8 0 7 8 -2 7 3 12 10 11 6 -2
12 2 12 8 0 5 5 7 10 4 6 -3 10 0 11 7 0 10 2 11 6 0 3 -9 9 -10 17 -3z"/>
<path d="M2620 4141 c0 -8 -3 -11 -7 -8 -3 4 -12 2 -20 -5 -11 -9 -11 -14 4
-31 10 -11 12 -17 6 -13 -7 4 -13 3 -13 -1 0 -5 6 -15 13 -22 8 -10 8 -12 0
-7 -8 4 -11 -3 -11 -23 1 -19 5 -28 12 -25 6 3 3 -1 -7 -9 -10 -8 -14 -18 -9
-21 5 -3 7 -17 4 -31 -2 -14 2 -33 9 -42 8 -9 9 -14 3 -10 -7 4 -14 -2 -17
-13 -3 -11 -2 -18 3 -15 4 3 11 -2 14 -11 3 -8 2 -12 -4 -9 -14 9 -12 -8 3
-24 10 -12 9 -13 -7 -7 -18 6 -18 5 -1 -20 10 -15 12 -23 4 -19 -9 6 -11 3 -6
-8 3 -10 2 -17 -4 -17 -6 0 -7 -6 -2 -12 4 -7 6 -22 5 -33 -2 -17 -1 -18 8 -5
10 13 11 12 6 -3 -3 -10 -6 -21 -6 -23 0 -3 -5 -2 -11 2 -8 5 -8 1 0 -13 6
-11 8 -23 4 -26 -3 -4 0 -14 8 -24 11 -14 11 -15 0 -9 -10 7 -12 3 -6 -14 5
-15 4 -20 -4 -16 -7 5 -9 1 -5 -8 3 -9 10 -16 15 -16 5 0 9 -5 9 -11 0 -5 -4
-7 -10 -4 -5 3 -10 1 -10 -5 0 -7 6 -10 14 -7 7 3 19 0 26 -6 9 -8 11 -8 7 -1
-9 15 46 15 55 0 6 -8 8 -7 8 2 0 6 7 12 16 12 9 0 12 -5 8 -12 -5 -9 -2 -9 9
1 10 8 28 11 46 8 27 -6 28 -5 28 32 0 20 3 42 7 49 4 7 4 12 -1 12 -9 0 -8
134 2 149 3 6 2 11 -2 11 -5 0 -6 32 -3 70 3 39 3 70 0 70 -3 0 -4 41 -2 92 2
50 1 102 -3 116 -5 21 -8 22 -22 10 -14 -11 -16 -11 -8 2 8 13 7 13 -8 1 -9
-7 -17 -9 -17 -4 0 5 -7 10 -15 10 -8 0 -12 -4 -9 -9 3 -4 0 -8 -5 -8 -6 0
-11 4 -11 8 0 5 -7 9 -15 9 -8 0 -15 -5 -15 -11 0 -6 -5 -4 -10 4 -9 13 -10
13 -10 0 0 -13 -1 -13 -10 0 -9 13 -10 13 -10 0 0 -13 -1 -13 -10 0 -8 12 -10
12 -10 1z"/>
<path d="M4600 4124 c-12 -32 -12 -37 -1 -29 6 3 6 -6 1 -25 -6 -21 -5 -30 3
-30 8 0 8 -3 2 -8 -12 -9 -13 -152 -1 -152 5 0 3 -7 -4 -15 -9 -11 -9 -15 -1
-15 7 0 9 -5 4 -12 -12 -21 -12 -38 0 -38 8 0 8 -3 2 -8 -14 -10 -17 -32 -5
-32 6 0 6 -9 0 -25 -5 -13 -5 -27 -1 -30 5 -3 5 -21 1 -40 -4 -19 -4 -37 0
-40 4 -3 4 -21 0 -40 -5 -22 -4 -35 2 -35 7 0 6 -5 -1 -14 -9 -11 -6 -13 19
-10 23 3 29 0 24 -9 -6 -9 -5 -9 7 0 8 6 36 10 67 7 40 -3 51 0 46 9 -4 6 3 3
16 -8 13 -11 20 -14 16 -7 -4 7 -2 12 6 12 10 0 13 36 14 165 0 167 11 222 40
211 8 -3 11 0 8 8 -3 7 3 19 12 27 16 12 17 12 9 -1 -7 -12 -6 -13 6 -3 8 7
33 13 54 14 66 3 75 7 66 32 -5 12 -5 31 -1 42 4 11 3 23 -3 27 -7 4 -7 11 1
21 7 8 10 25 8 38 -3 13 -5 27 -5 31 -1 11 -71 4 -71 -7 0 -5 -5 -3 -10 5 -6
10 -10 11 -10 3 0 -7 -12 -13 -26 -13 -14 0 -23 -4 -19 -10 3 -5 -1 -10 -9
-10 -9 0 -16 -5 -16 -11 0 -5 -4 -8 -9 -5 -5 3 -12 -1 -15 -10 -10 -26 -28 -4
-21 25 4 14 3 23 -1 19 -4 -4 -13 0 -20 10 -9 11 -13 13 -14 4 0 -8 -5 -10
-12 -5 -19 11 -39 13 -32 2 3 -5 1 -9 -5 -9 -5 0 -12 6 -14 13 -4 8 -6 7 -6
-3 -1 -13 -2 -13 -11 0 -9 13 -10 13 -10 0 0 -13 -1 -13 -10 0 -8 12 -10 12
-10 1 0 -11 -3 -11 -15 -1 -10 9 -15 9 -15 1 0 -6 -5 -11 -11 -11 -5 0 -7 5
-4 10 3 6 4 10 0 10 -3 0 -10 -12 -15 -26z"/>
<path d="M5841 4142 c-1 -7 -5 -11 -10 -8 -5 3 -11 -1 -15 -9 -3 -8 -2 -15 3
-15 13 0 3 -122 -11 -131 -9 -6 -7 -9 7 -9 17 0 17 -2 5 -10 -12 -8 -12 -10
-1 -10 11 0 11 -3 0 -17 -12 -14 -12 -15 -1 -9 11 7 12 4 4 -11 -6 -10 -7 -25
-3 -32 9 -14 5 -137 -5 -153 -4 -7 -2 -8 4 -4 9 5 9 0 2 -18 -7 -18 -6 -26 1
-26 8 0 8 -4 1 -13 -6 -7 -7 -18 -3 -25 9 -14 7 -85 -3 -101 -4 -7 1 -11 13
-11 12 0 21 -6 21 -12 0 -9 4 -8 10 2 9 13 11 13 20 0 6 -10 10 -11 10 -2 0 6
9 12 20 12 11 0 20 -6 20 -12 0 -9 3 -9 9 1 8 13 12 13 27 0 14 -11 16 -11 9
0 -6 11 -1 13 23 9 31 -4 49 12 36 33 -3 5 0 9 7 9 9 0 9 3 0 14 -9 11 -9 15
1 19 10 4 10 6 1 6 -7 1 -13 6 -13 12 0 5 6 7 13 3 9 -6 9 -5 0 7 -10 12 -10
18 -1 27 9 9 9 12 -1 12 -9 0 -10 4 -4 13 11 14 11 27 -1 46 -5 8 -4 16 5 22
12 7 12 9 0 9 -11 0 -11 3 -1 15 12 14 7 19 -15 16 -5 -1 -3 4 6 11 18 15 21
48 5 48 -6 0 -5 4 2 9 8 4 13 11 13 15 -3 19 1 27 22 48 34 35 87 62 71 37 -4
-8 0 -8 15 0 14 8 21 8 21 1 0 -5 3 -9 8 -9 19 3 42 -2 41 -8 -3 -20 2 -34 11
-28 9 6 15 -30 11 -64 -2 -7 2 -10 8 -6 8 4 8 -1 2 -18 -6 -16 -6 -28 1 -35 6
-6 6 -12 -1 -16 -7 -4 -7 -15 -1 -31 6 -15 6 -27 0 -30 -6 -4 -10 -11 -10 -16
0 -6 5 -7 12 -3 7 4 8 3 4 -4 -11 -18 -16 -52 -7 -52 9 0 8 -37 -2 -46 -3 -4
-2 -16 4 -27 6 -10 7 -17 2 -14 -5 3 -9 -2 -9 -12 0 -12 6 -17 17 -14 9 3 20
0 24 -7 5 -8 10 -8 21 1 11 9 14 8 14 -2 0 -11 2 -11 10 1 9 13 11 13 20 0 7
-11 10 -11 10 -2 0 13 35 13 57 -1 6 -4 15 -2 19 4 5 8 3 9 -6 4 -9 -5 -11 -4
-6 4 6 9 11 9 24 -1 13 -11 14 -11 10 2 -3 8 2 21 11 28 9 8 11 11 5 8 -7 -3
-11 6 -12 25 0 19 3 27 11 23 7 -3 4 1 -6 9 -15 13 -16 15 -2 21 8 3 15 11 15
18 0 9 -3 8 -10 -2 -8 -12 -10 -9 -10 12 0 14 6 29 13 31 10 4 10 6 0 6 -7 1
-13 12 -13 26 0 14 6 25 13 25 9 0 9 2 0 8 -8 5 -12 31 -12 74 1 37 -2 71 -6
77 -3 6 -1 11 6 11 10 0 10 3 2 11 -6 6 -9 18 -6 27 4 9 2 13 -4 9 -6 -4 -10
4 -10 20 0 15 -6 29 -12 31 -6 2 -11 10 -11 18 0 8 -7 17 -15 20 -8 4 -12 11
-8 17 3 6 1 7 -6 3 -6 -4 -14 0 -17 8 -3 9 -12 16 -20 16 -8 0 -14 5 -14 12 0
6 -3 8 -7 5 -3 -4 -17 0 -31 9 -17 11 -22 12 -16 3 6 -11 5 -12 -7 -3 -19 16
-100 16 -118 1 -11 -9 -15 -9 -18 0 -4 10 -9 10 -26 0 -12 -7 -24 -15 -27 -18
-8 -8 -44 -22 -53 -20 -5 1 -6 -3 -3 -8 4 -5 2 -12 -4 -16 -9 -6 -14 14 -11
43 1 6 -3 12 -9 12 -6 0 -9 4 -6 8 3 5 -1 9 -9 9 -8 0 -15 -5 -15 -11 0 -6 -5
-4 -10 4 -9 13 -10 13 -10 0 0 -13 -1 -13 -10 0 -9 13 -10 13 -10 0 0 -13 -1
-13 -10 0 -6 10 -10 11 -10 3 0 -7 -5 -13 -11 -13 -5 0 -8 4 -5 9 7 11 -13 9
-31 -2 -8 -5 -13 -3 -13 5 0 10 -2 10 -9 -1 -7 -11 -9 -11 -14 0 -4 11 -6 11
-6 1z"/>
<path d="M6589 4139 c-4 -51 -5 -137 -1 -152 4 -15 7 -16 13 -5 5 8 9 8 9 2 0
-6 11 -11 25 -11 14 0 25 5 25 11 0 7 3 7 8 1 11 -15 32 -17 32 -2 0 9 2 9 9
-1 4 -8 12 -14 16 -14 4 0 12 6 16 14 7 10 9 10 9 1 0 -7 7 -13 15 -13 8 0 15
6 15 13 0 9 2 9 8 0 5 -8 13 -9 22 -3 9 5 19 5 27 -2 18 -15 16 -28 -4 -28 -9
0 -13 -3 -10 -7 4 -3 -2 -12 -13 -20 -11 -8 -20 -21 -20 -29 0 -8 -4 -12 -10
-9 -5 3 -10 2 -10 -3 0 -14 -53 -67 -63 -64 -5 1 -6 -2 -2 -8 3 -5 -9 -24 -27
-42 -18 -18 -33 -35 -33 -38 0 -13 -33 -39 -40 -32 -5 4 -5 -1 -2 -10 4 -12 1
-18 -8 -18 -7 0 -17 -5 -21 -12 -5 -7 -3 -8 6 -3 10 6 11 4 4 -6 -5 -8 -9 -41
-10 -74 -1 -39 1 -53 7 -40 6 15 8 16 8 4 1 -12 9 -16 34 -15 17 2 38 -2 44
-7 9 -6 15 -4 19 8 7 17 8 17 21 -1 7 -10 13 -12 13 -6 0 7 8 12 18 12 14 0
15 -2 2 -10 -8 -5 -10 -10 -4 -10 6 0 14 3 18 7 4 4 19 9 34 10 21 3 24 1 12
-7 -9 -6 -10 -10 -3 -10 6 0 15 5 18 10 7 12 114 8 134 -4 9 -6 12 -5 8 1 -4
6 6 10 23 11 17 0 30 -5 30 -11 0 -7 4 -6 10 3 8 12 13 13 29 3 12 -7 22 -9
26 -3 3 5 14 7 25 5 11 -2 20 1 20 7 0 7 4 7 13 -1 11 -9 14 -6 13 12 -1 12
-6 28 -10 36 -6 9 -5 12 0 8 6 -3 11 9 11 29 1 20 -3 31 -9 28 -6 -4 -6 2 1
14 8 16 7 21 -5 26 -23 9 -46 7 -40 -2 3 -5 -1 -9 -9 -9 -8 0 -12 4 -10 7 7
12 -59 7 -67 -5 -5 -7 -8 -7 -8 0 0 6 -9 11 -20 12 -13 1 -18 -2 -13 -10 4 -8
1 -8 -9 1 -11 9 -18 10 -23 2 -8 -13 -25 -13 -25 1 0 5 5 7 12 3 7 -4 8 -3 4
5 -6 9 -11 9 -22 0 -8 -6 -14 -8 -14 -4 0 4 -6 3 -13 -4 -11 -8 -13 -5 -9 19
2 16 8 27 13 24 5 -3 9 0 9 6 0 6 5 8 12 4 7 -5 8 -3 3 5 -8 14 26 51 47 51 9
0 9 3 -2 10 -13 8 -12 10 3 10 9 0 17 5 17 11 0 6 15 27 34 48 85 89 104 111
98 111 -4 0 0 5 8 10 8 5 16 17 17 27 9 89 9 95 -9 115 -10 12 -18 16 -18 8 0
-10 -3 -10 -14 -1 -11 9 -16 9 -21 0 -6 -8 -10 -7 -16 2 -7 11 -9 11 -9 -1 0
-13 -1 -13 -10 0 -9 13 -10 13 -10 0 0 -13 -1 -13 -10 0 -9 13 -10 13 -10 0 0
-13 -1 -13 -10 0 -9 13 -10 13 -10 0 0 -13 -1 -13 -10 0 -7 11 -10 11 -10 2 0
-8 -5 -10 -12 -5 -20 12 -37 12 -44 1 -4 -6 -10 -5 -15 3 -7 11 -9 11 -9 -1 0
-13 -1 -13 -10 0 -9 13 -10 13 -10 0 0 -13 -1 -13 -10 0 -9 13 -10 13 -10 0 0
-13 -1 -13 -10 0 -9 13 -10 13 -10 0 0 -13 -1 -13 -10 0 -7 11 -10 11 -10 2 0
-8 -5 -10 -12 -5 -20 12 -37 12 -44 1 -4 -6 -10 -5 -15 3 -7 11 -9 11 -9 -1 0
-13 -1 -13 -10 0 -9 13 -10 13 -10 0 0 -13 -1 -13 -10 0 -9 13 -10 13 -10 0 0
-13 -1 -13 -10 0 -9 13 -10 13 -10 0 0 -13 -1 -13 -10 0 -8 12 -10 12 -10 1 0
-11 -3 -11 -17 0 -15 12 -16 12 -8 -1 8 -13 7 -13 -8 -1 -14 11 -17 11 -18 0z"/>
<path d="M7159 4148 c-6 -13 -4 -46 2 -42 5 3 9 -4 9 -15 0 -11 5 -23 11 -26
6 -4 8 -13 5 -21 -3 -8 0 -14 7 -14 8 0 6 -4 -3 -10 -13 -9 -13 -10 0 -10 9 0
16 -10 17 -22 1 -11 8 -25 15 -29 7 -5 9 -9 4 -9 -4 0 -1 -11 8 -25 9 -14 13
-25 9 -25 -5 0 0 -5 10 -11 9 -6 15 -15 11 -20 -3 -5 0 -17 8 -26 11 -14 11
-16 -2 -9 -9 4 -8 1 3 -7 9 -8 17 -24 17 -36 0 -11 5 -21 10 -21 6 0 10 -12
10 -26 0 -14 4 -23 10 -19 6 4 10 -5 10 -20 0 -17 4 -24 12 -19 6 4 8 3 5 -3
-3 -5 0 -22 8 -37 8 -14 9 -24 4 -20 -6 4 -3 -5 6 -20 10 -14 14 -26 10 -26
-3 0 1 -7 9 -16 9 -8 14 -19 11 -24 -3 -5 0 -10 7 -12 17 -6 -20 -44 -55 -57
-20 -8 -27 -7 -27 2 0 9 -2 9 -8 0 -9 -15 -72 10 -73 29 0 7 -4 3 -9 -9 -5
-13 -17 -23 -27 -23 -13 0 -15 -3 -5 -8 10 -7 7 -15 -10 -37 -12 -16 -17 -26
-10 -21 6 4 12 3 12 -2 0 -6 -7 -12 -15 -16 -9 -3 -12 -12 -8 -22 5 -13 3 -15
-8 -9 -12 8 -12 6 0 -8 7 -9 20 -17 28 -17 8 0 12 -4 9 -8 -2 -4 7 -9 21 -10
14 -1 33 -8 41 -15 13 -10 14 -9 7 3 -6 12 -5 13 5 3 11 -10 17 -10 29 0 12 9
13 9 7 0 -5 -9 -1 -13 13 -13 10 0 22 6 24 13 4 9 6 8 6 -2 1 -11 4 -11 18 0
11 10 14 10 9 2 -4 -7 -3 -13 3 -13 5 0 12 4 15 9 3 5 19 7 35 6 21 -2 28 1
24 11 -3 9 2 14 16 14 12 0 21 5 21 12 0 6 3 8 7 5 3 -4 12 1 20 11 8 9 11 11
7 3 -5 -9 -3 -12 5 -7 6 4 9 11 7 15 -3 4 7 21 22 37 28 31 32 37 32 55 0 5 6
7 13 3 9 -5 9 -4 0 6 -9 10 -8 16 3 27 8 8 12 19 9 24 -4 5 -1 9 4 9 6 0 11 9
11 20 0 11 5 20 11 20 6 0 9 7 5 15 -3 8 -1 15 4 15 6 0 10 9 10 21 0 13 4 18
12 13 7 -4 8 -3 4 5 -4 6 -2 19 6 28 11 14 11 16 -2 9 -8 -4 -6 0 4 8 11 9 16
16 12 16 -5 0 -2 8 5 17 12 15 12 16 -1 8 -8 -4 -4 4 10 20 14 16 20 25 13 21
-6 -3 -1 14 12 39 14 25 22 45 20 45 -3 0 4 18 15 40 11 22 17 40 14 40 -4 0
1 9 12 21 10 12 18 23 17 25 -7 11 -2 24 7 19 6 -4 7 1 3 11 -4 12 -3 15 5 10
8 -5 10 -2 6 9 -4 8 -1 22 6 30 7 9 10 18 7 21 -3 4 0 13 8 21 8 8 15 24 14
36 0 12 -3 16 -6 10 -5 -14 -33 -18 -33 -5 0 5 -7 9 -15 9 -8 0 -12 -4 -9 -9
3 -4 0 -8 -5 -8 -6 0 -11 6 -11 13 0 7 -3 8 -8 2 -11 -15 -32 -17 -32 -3 0 9
-4 8 -10 -2 -8 -12 -10 -12 -10 -1 0 10 -3 11 -14 2 -11 -9 -15 -9 -18 0 -5
15 -48 -28 -48 -48 0 -7 -9 -29 -20 -48 -11 -20 -18 -40 -15 -46 4 -5 2 -9 -3
-9 -6 0 -13 -7 -16 -16 -4 -10 -2 -13 7 -9 6 4 4 0 -5 -8 -21 -16 -24 -32 -5
-21 8 5 8 3 -2 -9 -7 -9 -17 -14 -22 -12 -4 3 -6 -3 -4 -15 2 -11 0 -22 -6
-25 -5 -4 -9 -15 -9 -26 0 -10 -5 -19 -11 -19 -6 0 -9 -9 -6 -19 3 -12 -1 -22
-9 -25 -8 -3 -14 1 -14 9 0 8 -4 15 -10 15 -5 0 -10 10 -10 23 0 12 -7 31 -15
41 -8 10 -12 23 -9 27 3 5 0 9 -5 9 -6 0 -11 9 -11 20 0 11 -5 20 -11 20 -6 0
-9 7 -6 15 4 8 2 17 -4 20 -5 4 -7 11 -4 16 4 5 1 9 -5 9 -6 0 -8 5 -5 10 3 6
1 10 -5 10 -6 0 -9 4 -6 8 3 5 -4 23 -15 41 -11 18 -17 36 -14 42 4 5 -1 9 -9
9 -9 0 -16 6 -16 13 0 9 -3 8 -9 -2 -6 -9 -10 -10 -16 -2 -5 9 -10 9 -21 0
-11 -9 -14 -8 -14 2 0 11 -2 11 -10 -1 -9 -13 -10 -13 -10 0 0 13 -1 13 -10 0
-9 -13 -10 -13 -10 0 0 13 -1 13 -10 0 -8 -12 -10 -12 -10 -1 0 11 -3 11 -17
0 -13 -11 -17 -11 -21 -1 -3 10 -7 10 -20 0 -12 -10 -14 -10 -8 0 4 6 5 12 2
12 -3 0 -7 -1 -7 -2z"/>
<path d="M3437 3924 c-12 -39 -11 -185 1 -169 8 12 27 13 38 3 4 -4 14 -3 21
4 11 9 19 9 33 0 12 -7 21 -8 25 -2 3 6 11 10 16 10 6 0 8 -4 5 -8 -6 -11 40
-9 50 1 12 11 26 8 18 -5 -5 -7 -3 -8 7 -3 20 13 60 15 53 3 -4 -7 0 -7 13 1
15 7 23 7 32 -2 10 -9 11 -8 5 7 -6 15 -4 17 6 11 10 -6 11 -4 4 6 -13 22 -14
43 -1 51 9 6 8 8 -2 8 -10 0 -11 3 -2 14 9 11 9 16 0 21 -8 6 -8 10 2 15 22
14 -14 39 -57 40 -22 0 -59 1 -84 3 -30 1 -49 -3 -58 -13 -8 -8 -11 -10 -8 -3
4 6 2 14 -4 18 -5 3 -10 0 -10 -7 0 -10 -2 -10 -8 -1 -5 8 -13 9 -22 3 -8 -5
-21 -5 -32 1 -13 7 -18 6 -18 -3 0 -10 -2 -10 -9 1 -7 11 -10 10 -14 -5z"/>
<path d="M1585 3721 c6 -11 4 -13 -9 -8 -10 4 -19 1 -22 -8 -4 -8 -15 -15 -25
-15 -11 0 -22 -6 -25 -14 -3 -9 -12 -12 -21 -9 -9 4 -14 2 -10 -3 3 -6 -27
-11 -75 -13 -64 -2 -78 0 -72 11 5 9 2 8 -11 -2 -15 -12 -17 -12 -10 -1 6 11
4 13 -8 8 -8 -3 -21 1 -27 9 -7 8 -21 14 -31 14 -10 0 -23 8 -28 18 -6 9 -11
12 -11 5 0 -7 -6 -10 -14 -7 -9 3 -19 -4 -26 -16 -8 -15 -8 -20 -1 -16 6 4 11
0 11 -9 0 -9 4 -14 8 -11 5 3 14 -4 22 -14 8 -10 17 -17 22 -14 4 3 8 0 8 -6
0 -6 5 -8 10 -5 6 3 10 2 10 -4 0 -6 7 -7 17 -4 10 4 14 2 10 -4 -6 -9 20 -12
126 -16 24 0 42 5 48 14 7 11 9 11 9 0 0 -11 3 -11 17 0 11 9 14 10 9 2 -5 -9
-2 -11 8 -7 9 3 16 10 16 16 0 5 4 6 10 3 5 -3 19 3 31 14 12 11 26 18 31 15
4 -3 8 1 8 8 0 7 9 19 20 26 11 7 20 17 20 24 0 7 -7 3 -15 -8 -10 -13 -13
-14 -10 -3 3 9 -2 22 -11 30 -15 12 -17 12 -9 0z"/>
<path d="M5386 3508 c3 -5 10 -6 15 -3 13 9 11 12 -6 12 -8 0 -12 -4 -9 -9z"/>
</g>
</svg>
